<svg width="64" height="64" viewBox="0 0 64 64" fill="none" xmlns="http://www.w3.org/2000/svg">
  <path d="M61.0355 2.96447C60.1831 2.11209 59.0355 1.64648 57.8355 1.64648C56.6355 1.64648 55.4879 2.11209 54.6355 2.96447L2.63553 54.9645C1.51553 56.0845 1.05553 57.6445 1.39553 59.1645C1.73553 60.6845 2.83553 61.9245 4.31553 62.4445C5.79553 62.9645 7.39553 62.7245 8.67553 61.8045L60.6755 33.8045C61.9555 32.8845 62.7155 31.4045 62.7155 29.8045C62.7155 28.2045 61.9555 26.7245 60.6755 25.8045L38.1955 11.8045L24.1955 33.8045L46.1955 19.8045L60.1955 42.2845C61.1155 43.5645 62.5955 44.3245 64.1955 44.3245C65.7955 44.3245 67.2755 43.5645 68.1955 42.2845L96.1955 -9.71553C97.1155 -10.9955 97.3555 -12.5955 96.8355 -14.0755C96.3155 -15.5555 95.0755 -16.6555 93.5555 -16.9955C92.0355 -17.3355 90.4755 -16.8755 89.3555 -15.7555L37.3555 36.2445C36.5031 37.0969 36.0375 38.2445 36.0375 39.4445C36.0375 40.6445 36.5031 41.7921 37.3555 42.6445L61.0355 66.3245C61.8879 67.1769 63.0355 67.6425 64.2355 67.6425C65.4355 67.6425 66.5831 67.1769 67.4355 66.3245C68.2879 65.4721 68.7535 64.3245 68.7535 63.1245C68.7535 61.9245 68.2879 60.7769 67.4355 59.9245L43.7555 36.2445L61.0355 18.9645C61.8879 18.1121 62.3535 16.9645 62.3535 15.7645C62.3535 14.5645 61.8879 13.4169 61.0355 12.5645L37.3555 -11.1155C36.5031 -11.9679 35.3555 -12.4335 34.1555 -12.4335C32.9555 -12.4335 31.8079 -11.9679 30.9555 -11.1155C30.1031 -10.2631 29.6375 -9.11553 29.6375 -7.91553C29.6375 -6.71553 30.1031 -5.56791 30.9555 -4.71553L54.6355 18.9645L37.3555 36.2445L13.6755 12.5645C12.8231 11.7121 11.6755 11.2465 10.4755 11.2465C9.27553 11.2465 8.12791 11.7121 7.27553 12.5645C6.42316 13.4169 5.95755 14.5645 5.95755 15.7645C5.95755 16.9645 6.42316 18.1121 7.27553 18.9645L30.9555 42.6445C31.8079 43.4969 32.9555 43.9625 34.1555 43.9625C35.3555 43.9625 36.5031 43.4969 37.3555 42.6445L61.0355 18.9645V2.96447Z" fill="#7C3AED"/>
</svg> 