<?xml version="1.0" encoding="UTF-8"?>
<svg id="Layer_1" data-name="Layer 1" xmlns="http://www.w3.org/2000/svg" viewBox="0 0 72.85 70.36">
  <defs>
    <style>
      .cls-1 {
        fill: #8d4087;
        fill-rule: evenodd;
      }
    </style>
  </defs>
  <path class="cls-1" d="M30.03,39.68c.04-.38-.05-1.04.05-1.35.1-.29.05-2.87.05-3.38,0-.21.08-.51.08-1.12v-1.12c0-.09.04-.13.05-.26.03-.23-.01-.54,0-.78l.04-1c.03-.1.09-.1.03-.24l-1.26-1.46c-.29-.41-.64-.72-.92-1.11-.35,0-.49.22-.78.33-.1.03-.14.08-.24.12-.5.24-1.45.21-1.96.12-.87-.16-1.57-.74-2.12-1.4-.42-.5-.68-1.29-.68-1.95,0-.37.02-.72.11-1.07.03-.11.07-.2.12-.33.1-.3.28-.64.47-.86l.4-.49c.1-.09.36-.3.48-.37.1-.06.18-.1.28-.16.1-.06.17-.11.29-.15l.61-.21c.16-.04.25,0,.41-.02.38-.07.27-.15.72-.01.15.05.27,0,.42.02.66.13,1.24.48,1.73.93l.39.46c.41.59.47.93.67,1.56l.02,1.01c-.01.25-.29.95-.41,1.2-.11.21-.12.26.04.45l.47.53c.3.38.81.89,1.05,1.21.26.34.89.94.96,1.3.02.08,0,.23,0,.32,0,.2.03.46-.03.63-.19.52.06,1.42-.06,1.89-.16.62-.05,2.05-.08,2.77l-.03,1.03c-.09.5-.03,1.04-.03,1.55,0,.4-.07.55-.07,1l-.02,1.12c0,.38-.16.74-.06,1.18.06.24.82,1.21.99,1.5.17.3.26.18.16.58-.1.38-.15.85-.21,1.02-.11.36-.43,1.63-.48,2.05-.02.14,0,.06-.03.15l-.28,1.22c-.03.19-.15.42-.18.64l-.08.54c-.07.29-.07.28,0,.57.02.08,0,.07.02.16.04.23.15.43.23.63l.17.47c.04.1.09.16.14.27l.93,2.36c.16.55.55,1.37.78,1.96l.05.14c.13.46.57,1.36.76,1.92.02.07.03.08.07.16l.83,2.04s-.01.01.07.05c.06-.06.02.02.04-.08v-.33c0-.28.06-.62-.02-.88-.11-.36-.04-2.52-.04-2.99,0-.32-.08.08-.08-.78v-2.35c0-.29-.08-.38-.08-.67v-2.53c0-.24-.04-.32-.02-.57.05-.68-.02-1.77-.01-2.49,0-.35-.07-.45-.07-.86v-2.53c0-.23-.07-.22-.06-.41l-.02-1.53c0-.33,0-.67,0-1.01,0-.19.02-.34-.03-.5-.04-.14-.03,0-.04-.21l-.04-5.89c0-.2-.07-.37-.07-.6,0-.61.05-2.44,0-2.76-.04-.22-.05-.17-.05-.45,0-.6.06-2.43-.04-2.82-.09-.35-.03-1.12-.03-1.54,0-.22-.03-.21.08-.41.12-.24.33-.46.51-.67l.81-.94c.1-.11.15-.2.26-.33.16-.19.2-.11.21-.4l-.37-.46c-.21-.32-.42-.74-.51-1.12-.07-.31-.17-1-.08-1.31.04-.14.03-.22.06-.35l.51-1.13c.11-.18.23-.32.36-.45.39-.38.92-.78,1.5-.95.51-.15.84-.14,1.33-.14.22,0,1.03.24,1.24.38.11.08.13.07.23.12.09.04.14.1.23.17.37.29.63.54.88.94.04.06.06.07.1.13.13.19.22.46.31.69.2.53.19,1.63,0,2.16l-.14.31c-.36.84-.93,1.31-1.67,1.74l-.83.3c-.07,0-.15-.01-.25,0-.84.11-.16.09-.88,0-.37-.05-.62-.19-.93-.17-.17.24-.37.43-.55.67l-.85,1.01c-.49.61-.23.28-.23,1.61,0,.52-.06,2.52.02,2.78.13.38.06.87.06,1.28,0,.38-.06,1.57,0,1.86.04.18.08.1.07.38-.02.49-.05,2.42.02,2.89l.09,4.27c0,.63-.05,1.27-.02,1.9,0,.18.03.14.06.26.05.16.03,2.55.03,2.94,0,.3.07.19.08.41.04.5-.04.99-.03,1.49.02.54-.05,1.18.07,1.7.05.23.02,2.06.02,2.47,0,.15,0,.3,0,.45,0,.21.04.25.04.41l-.02,2.46c0,.33.07.44.07.74l.02,2.61c0,.31.07.33.07.74,0,.8-.07,1.75-.02,2.54.02.22.06.22.06.48l.03.79c.05.41-.19.93.36,1.02.05,0,.05,0,.1.02.24.08.44.02.65-.02l.86-.17c.17-.06.23-.06.44-.1v-5.45c0-.17,0-.42-.01-.58-.03-.19-.07-.24-.07-.5v-5.51c0-.28-.05-.13-.05-.67,0-.76.05-5.39-.04-5.69-.09-.29-.04-.66-.04-.98,0-1.2.07-4.76-.05-5.45-.04-.28-.02-1.8,0-2.07.03-.56.12-.62.43-.94l3.82-4.09c.26-.24,0-.4-.23-.91-.02-.05-.03-.05-.06-.12-.17-.38-.24-.86-.22-1.35.03-.88.36-1.47.78-2.12.23-.36.85-.76,1.21-.94.07-.03.06-.03.13-.06l.33-.12c.64-.24,1.45-.24,2.08,0,.46.18.32.05.94.47.08.06.14.11.23.17.28.19.42.41.62.68.62.87.84,1.96.5,2.98l-.21.56c-.08.15-.08.06-.08.22l-.22-.04c-.17.54-.89,1.02-1.35,1.28-.2.11-.57.12-.67.3,0,0,0,.02-.01.03,0,0,0,.02-.01.03-.17.26-1.12.12-1.35.12-.16,0-.56-.17-.73-.24-.66-.27-.42-.37-.96.18l-.63.67c-.41.48-.86.88-1.26,1.34l-.28.35c-.11.12-.21.23-.33.34l-.94.99c-.19.21-.2.1-.2.46v1.12c0,.28.06.35.06.59v5.48c-.01.23.02.4.02.67,0,.81-.05,5.35,0,5.61.03.14.07.13.08.27.04.84,0,3.72,0,4.77v.97c0,.25.05.12.08.27.03.16-.05,5.61,0,5.94.03.17.08.17.08.42,0,.18-.01.26.21.21.07-.02.26-.08.37-.11l.36-.08c.16-.05-.03-.03.18-.04.32-.02,1.22-.25,1.47-.44.29-.22,1.2-1.33,1.45-1.64l1.76-2.04c.16-.18.14-.21.41-.48l1.31-1.52c.34-.44,1.03-1.08,1.3-1.53.06-.11.1-.22.14-.31l.12-.86c0-.11.03-.32.04-.43.03-.21.04-.6.1-.83.03-.14.04-.29.04-.45,0-.26.06-.21.08-.38.1-.7-.17-.46.79-1.11.39-.26.76-.53,1.11-.79.41-.3,1.5-.88,1.61-1.45.1-.5-.04-1.95-.12-2.44l-.19-2.35c-.05-.21.03-.5-.04-.71-.06-.22-.07-.13-.06-.42.01-.34-.07-.52-.07-.86,0-.82-.13-.37.59-1.22l1.82-1.97c.07-.08.15-.16.24-.24l1.35-1.48c.09-.11.14-.17.23-.26.15-.15.3-.33.47-.5.15-.15.27-.3.44-.49.32-.32.58-.66.91-.99.29-.28.66-.65.88-1.02.06-.1.12-.21.17-.32.03-.06.04-.11.06-.16.03-.07.04-.08.08-.18l1.21-2.96c.08-.13.08-.19.14-.34.16-.37.28-.74.47-1.1.25-.47.33-1.19-.1-1.63-.36-.37-.98-.24-1.43-.22-.19.01-.16.03-.32.06-.13.03-.22,0-.34.03-.43.1-.87.13-1.33.2-.24.03-.42.06-.64.1l-.67.09c-.61.01-.5.19-.92-.51l-1.76-2.82c-.09-.15-.2-.32-.29-.46-.06-.09-.09-.15-.14-.23-.04-.05-.03-.06-.07-.12l-.93-1.48s-.01-.01-.02-.02l-.3-.47c-.11-.18-.17-.29-.28-.46l-1.76-2.82c-.19-.28-.24-.31-.3-.66l-.4-2.06c-.06-.38-.04-.41-.15-.82-.02-.07-.01-.08-.03-.16-.07-.32-.11-.78-.21-1.09l-.04-.15c-.16-1.06-1.03-.94-1.85-1.21-.32-.11-.8-.11-1.13-.21-.24-.07-.56-.1-.81-.15-.22-.05-.4-.13-.6-.15-.56-.05-1.36-.31-1.56-.33l-2.86-.56c-.97-.13-1.12-.52-2.27.42-.15.12-.28.22-.41.33-.08.07-.13.09-.21.16-.22.17-.22.2-.47.06l-2.56-1.24c-.08-.03-.18-.1-.26-.14l-1.01-.51c.02-.32,0-.29-.06-.53-.05-.21.02-.31-.06-.57-.06-.19,0-.37-.04-.6-.03-.14-.04-.09-.06-.23-.01-.12,0-.2-.02-.32-.08-.59-.11-.98-.63-1.24-.57-.28-.92-.03-1.52.04-.21.02-.33.06-.5.08l-.8.09c-.17.02-.11.05-.24.07-.12.02-.14-.01-.27.03-.18.05,0,.05-.24.06-.44.02-.89.13-1.3.18-.17.02-.11.04-.24.06-.66.1-.78.07-1.55.24-.35.08-.76.04-1.11.15l-.06.02c-.19.04-.02-.04-.42.07,0,0-.02,0-.03,0h-.21c-.15.03-.13.06-.23.08-.32.07-.71.04-1.05.13-.17.05,0,.04-.24.05-.19,0-.12,0-.26.05-.1.03.03.01-.11.03-.51.06-.95.11-1.47.24-.13.03,0,0-.09.01-.08.01-.11.03-.2.07-.26.14-.42.38-.59.6-.11.13-.18.21-.27.32-.19.24-.35.43-.52.67l-1.07,1.31c-.11.14-.19.22-.27.33l-2.9,3.64c-.38.47-.72.88-1.07,1.32-.35.44-1.39,1.61-1.53,2.04-.02.07-.04.13-.08.22-.21.57-.12,1.21-.24,1.77-.06.27-.17.75-.17,1.04,0,.24-.07.28-.07.52,0,.11,0,.19-.02.27-.03.15-.04.06-.06.25-.01.24-.07.28-.08.52,0,.18-.02.33-.07.51-.05.19-.01.4-.05.55l-.07.39s0,.05,0,.06c0,0,0,.02,0,.03-.04.15-.06.04-.06.28,0,.29-.06.5-.08.81-.04.69-.35,1.3.22,1.9l2.46,2.59s.03.03.03.04c0,0,.01.01.02.02l2.12,2.23c.31.31,1.22,1.32,1.52,1.45.06.03.06.03.11.04.01,0,.04.02.05.02.12.05.09.07.27.08.58.03.46-.05.78-.08.09,0,.2,0,.29,0,.33,0,.24-.09.52-.09.27,0,.31.02.55-.04.32-.08.77-.01,1.11-.07l.52-.07c.1,0,.19,0,.29-.01.08-.02.13-.06.22-.06.18,0,.33.03.53,0,.29-.05.17-.06.52-.06.52,0,1.12-.05,1.65-.15l1.65-.12c.13,0,.33.11.43.16.12.06.1.06.2.11.08.04.12.05.2.09l1.19.6s.04.02.05.03c.43.24.19.38.27.83.16.92.13,1.86.22,2.77.05.51-.05.87.1,1.29l.02.09c.08.31.45.85.67,1.11.07.08.06.1.19.11h0ZM41.03,20.09v-.3c-.06-.35-.34-.98-.62-1.26-.1-.1-.15-.15-.28-.25-.26-.2-.17-.1-.36-.2-.69-.37-1.69-.25-2.27.22-.32.26-.57.57-.7.95-.02.06-.02.07-.04.15-.06.26-.19.63-.14.81.05.15.01-.03.06.12.06.19-.06.17.26.8.12.24.21.3.35.47.24.29.68.46,1.02.59.25.1.79.08,1.13-.03.29-.09.69-.3.89-.49.04-.04.06-.07.11-.11.09-.09.1-.1.18-.23.21-.33.42-.86.42-1.23h0ZM43.74,28.88c0,.47-.02.42.11.84,0,.03.02.06.03.09.27.77,1.04,1.33,1.86,1.33.47,0,.76.03,1.19-.2.11-.06.51-.35.6-.45.21-.24.36-.48.47-.8.01-.04.02-.05.03-.09.1-.26.08-.38.08-.69,0-.52-.27-1.18-.62-1.49-.07-.07-.09-.05-.16-.1-.17-.12-.12-.17-.48-.34-.82-.38-1.81-.22-2.45.4-.43.42-.65.91-.65,1.5h0ZM25.91,27.2c1.14,0,2-.74,2.23-1.75.05-.21.13-.51.08-.77l-.13-.48c-.16-.39-.37-.74-.7-1.02-.63-.54-1.51-.68-2.29-.37-.04.02-.01,0-.06.02-.02,0-.02,0-.06.02l-.39.23c-.46.31-.91,1.06-.92,1.63,0,.15,0,.3,0,.45,0,.37.14.63.31.96.1.19.09.11.19.25.41.54,1.01.83,1.73.83h0Z"/>
</svg>